<?xml version="1.0" encoding="utf-8"?>
<!-- Generator: Adobe Illustrator 17.0.2, SVG Export Plug-In . SVG Version: 6.00 Build 0)  -->
<!DOCTYPE svg PUBLIC "-//W3C//DTD SVG 1.1//EN" "http://www.w3.org/Graphics/SVG/1.1/DTD/svg11.dtd">
<svg version="1.1" id="Layer_1" xmlns="http://www.w3.org/2000/svg" xmlns:xlink="http://www.w3.org/1999/xlink" x="0px" y="0px"
	 width="199.988px" height="270.109px" viewBox="0 0 199.988 270.109" enable-background="new 0 0 199.988 270.109"
	 xml:space="preserve">
<path fill="#FDFEFF" d="M93.078,256.002c0,0-45.411-6.516-54.168,2.647c0,0-0.204,1.629,2.24,2.24c0,0-6.516,4.887,4.276,4.48
	l45.819-1.018c0,0-12.015,5.295,4.48,5.295c0,0,14.804,1.629,17.991-1.222c0,0,6.038-4.276,34.344-4.276l24.64,0.611
	c0,0-10.182-11.404-39.302-6.313l-23.418-1.018c0,0-19.753-40.931-18.735-80.233c0,0,3.869-52.742,17.716-70.662
	c0,0,9.775,6.924,12.015-3.055l2.851,7.535l2.036-4.276l12.015,21.993l2.851-4.48l2.647,19.549l6.313-2.851l-2.036,23.011
	l5.295-0.611l2.647,22.197l7.331-21.178l4.684,4.684l-3.055-27.898l6.109,2.24c0,0-7.942-19.346-11.811-20.364
	c0,0,1.425-2.036,7.942,1.425l-21.382-22.4h5.091l-12.829-11.2l-1.629-4.276l19.957,10.589l0.204-4.684l14.051,13.644l0.611-5.498
	l12.218,16.291l2.647-2.24c0,0,13.236,8.96,14.255,13.236c0,0-1.833-14.866-6.72-18.938c0,0,3.869,0.611,5.091,1.222
	c0,0-10.589-15.884-15.68-18.124l5.091-1.222c0,0-5.702-8.146-19.957-10.386l5.905-2.444c0,0-16.291-4.887-25.658-4.684l3.055-3.258
	c0,0-19.346-4.684-32.582,2.647l18.735-8.756l-3.665-3.869l19.549-4.48l-3.258-4.276h16.087l-1.629-4.684l18.735,2.444l-0.815-2.444
	l17.717-1.018c0,0-5.906-5.702-15.069-6.109l2.036-3.462c0,0-13.644-2.444-19.957,0c0,0,0-4.073,1.425-5.091
	c0,0-8.349-0.611-17.106,6.924c0,0-0.611-4.073,0.815-5.295c0,0-16.291,8.756-19.957,14.458v-5.702c0,0-6.72,2.444-21.789,28.509
	l-4.684-35.433l-3.258,3.665c0,0-5.702-20.364-8.96-21.382l-1.018,6.516c0,0-8.96-16.902-15.273-17.716l0.815,7.127
	c0,0-16.087-14.662-19.346-12.422l1.629,3.869c0,0-20.567-3.055-24.233-1.629c0,0,20.771,6.313,22.197,9.978l-3.665,2.24
	l16.495,6.924l-3.055,5.091L81.674,32l-4.276,1.833l15.68,14.255l-4.684,1.018c0,0,15.476,13.764,13.033,18.693
	c0,0-24.029-25.209-27.695-23.173l1.018,6.72c0,0-17.717-13.644-24.029-12.015l4.073,6.72c0,0-22.4-4.684-25.658-2.851
	c0,0,6.313,2.036,6.313,3.665c0,0-21.789,2.24-23.418,7.331l5.295,0.204c0,0-17.92,11.811-17.309,16.698
	c0,0,15.68-7.127,20.975-5.906l-1.425,7.535l20.16-12.626l-0.407,6.109l17.513-4.887l-4.684,5.091l24.029-0.204l-2.444,4.276
	l22.604,3.462l-30.749,1.222l3.462,3.258c0,0-19.142,1.833-25.455,7.127l6.109,2.444c0,0-14.458,4.276-18.938,13.644l8.553-1.222
	c0,0-14.255,12.626-15.68,20.975l5.091-1.425c0,0-5.906,12.789-4.684,19.835l11.811-15.355l4.276,1.833l6.924-17.309l4.073,3.869
	l10.996-14.866v4.073L79.23,90.444l-10.996,13.44l4.276-0.611c0,0-19.549,19.957-19.549,21.178h7.127
	c0,0-12.422,14.866-10.996,21.789l5.498-3.258c0,0-4.48,16.698-2.036,26.88l4.073-3.869c0,0,1.629,13.033,6.313,21.586l4.073-21.586
	l4.887,2.036l-2.444-23.622l5.702,2.647l1.629-20.771l4.276,4.276l9.775-22.604l2.851,5.091l11.404-20.364l-2.24,7.738l2.036,3.665
	l-4.895-0.204l-4.269,12.829l1.222,4.276l-3.665,1.018c0,0-3.462,8.987-4.276,13.046l1.629,4.744l-3.665,0.008l-2.851,16.82
	l2.851,5.091l-4.276,1.018l-0.611,19.957l3.665,3.258l-3.869,1.222l0.815,19.753l4.684,2.647l-4.276,3.665l8.756,38.895
	L93.078,256.002z"/>
</svg>
